<svg xmlns="http://www.w3.org/2000/svg" width="186" height="31" viewBox="0 0 186 31" fill="none"><g clip-path="url(#clip0_39_3)"><path d="M48.3599 23.5294C47.2067 23.5294 46.1899 23.2562 45.3095 22.7159C44.4291 22.1757 43.7471 21.4367 43.2511 20.499C42.7551 19.5675 42.5071 18.518 42.5071 17.3506C42.5071 16.4936 42.6497 15.6987 42.9287 14.9535C43.2077 14.2083 43.6107 13.5563 44.1315 12.985C44.6523 12.4199 45.2723 11.9728 45.9853 11.656C46.6983 11.3393 47.4981 11.1779 48.3723 11.1779C49.4883 11.1779 50.4431 11.4014 51.2367 11.8548C52.0303 12.3081 52.6875 12.9105 53.2021 13.6743L52.7619 14.1587V7.49539H54.9443V23.1693H52.9417V20.4369L53.2641 20.9337C52.8115 21.6789 52.1977 22.2937 51.4103 22.7843C50.6229 23.2748 49.6061 23.5232 48.3599 23.5232V23.5294ZM48.7567 21.5547C49.5379 21.5547 50.2323 21.3808 50.8399 21.0393C51.4475 20.6977 51.9187 20.2071 52.2659 19.5799C52.6131 18.9527 52.7867 18.2075 52.7867 17.3506C52.7867 16.4936 52.6131 15.7484 52.2659 15.115C51.9187 14.4816 51.4413 13.9972 50.8399 13.6556C50.2323 13.3141 49.5441 13.1464 48.7567 13.1464C47.9693 13.1464 47.2811 13.3141 46.6735 13.6556C46.0659 13.9972 45.5947 14.4816 45.2537 15.115C44.9127 15.7484 44.7391 16.4936 44.7391 17.3506C44.7391 18.2075 44.9127 18.9465 45.2537 19.5799C45.5947 20.2071 46.0721 20.6977 46.6797 21.0393C47.2873 21.3808 47.9817 21.5547 48.7567 21.5547Z" fill="#0B1956"></path><path d="M58.7263 23.1693V11.5319H60.9087V13.221C61.3737 12.4633 61.9317 11.9293 62.5765 11.625C63.2213 11.3207 63.9095 11.1655 64.6349 11.1655C64.8643 11.1655 65.0875 11.1779 65.2983 11.2027C65.5091 11.2276 65.7199 11.2586 65.9245 11.2959L65.6021 13.5749C65.3789 13.5066 65.1557 13.4507 64.9263 13.4197C64.6969 13.3886 64.4737 13.37 64.2505 13.37C63.2771 13.37 62.4773 13.6681 61.8511 14.2704C61.2249 14.8728 60.9087 15.6801 60.9087 16.6923V23.1631H58.7263V23.1693Z" fill="#0B1956"></path><path d="M73.4388 23.5294C72.205 23.5294 71.1138 23.2748 70.1714 22.7594C69.229 22.244 68.4912 21.5236 67.9642 20.6046C67.4372 19.6793 67.1768 18.605 67.1768 17.3816C67.1768 16.4936 67.3256 15.6739 67.6294 14.91C67.927 14.1524 68.3548 13.4942 68.9128 12.9415C69.4646 12.3888 70.1094 11.9541 70.8534 11.6498C71.5912 11.3393 72.3972 11.1841 73.2652 11.1841C74.2076 11.1841 75.0446 11.3517 75.7824 11.6809C76.5202 12.0162 77.134 12.4757 77.6176 13.0781C78.1012 13.6743 78.4546 14.376 78.6654 15.1833C78.8762 15.9844 78.9196 16.86 78.7956 17.8039H69.3344C69.3096 18.5801 69.4708 19.257 69.8056 19.8407C70.1466 20.4245 70.6364 20.8778 71.2812 21.2007C71.926 21.5236 72.6886 21.6851 73.5752 21.6851C74.2262 21.6851 74.8586 21.5795 75.4724 21.3746C76.0862 21.1697 76.6318 20.8654 77.1092 20.4617L78.033 22.0887C77.6548 22.3992 77.2022 22.66 76.6876 22.8774C76.1668 23.0947 75.6274 23.2624 75.0694 23.368C74.5052 23.4798 73.9596 23.5356 73.4326 23.5356L73.4388 23.5294ZM69.4584 16.0899H76.6194C76.5884 15.1088 76.2846 14.3449 75.708 13.7923C75.1314 13.2396 74.3068 12.9663 73.228 12.9663C72.1492 12.9663 71.3246 13.2396 70.6426 13.7923C69.9606 14.3449 69.57 15.1088 69.4584 16.0899Z" fill="#0B1956"></path><path d="M84.8097 23.5294C83.9975 23.5294 83.2845 23.3804 82.6769 23.0761C82.0693 22.778 81.5981 22.3496 81.2571 21.7969C80.9223 21.2442 80.7549 20.5984 80.7549 19.8407C80.7549 19.226 80.9161 18.6609 81.2323 18.1454C81.5547 17.6362 82.0507 17.2139 82.7327 16.8724C83.4147 16.5371 84.2951 16.3073 85.3739 16.1955C86.4589 16.0837 87.7671 16.1024 89.2985 16.2638L89.3605 17.866C88.1763 17.7107 87.1657 17.6486 86.3349 17.6797C85.5041 17.7169 84.8345 17.8287 84.3199 18.015C83.8053 18.2013 83.4271 18.4435 83.1853 18.754C82.9435 19.0583 82.8257 19.3998 82.8257 19.7786C82.8257 20.3872 83.0427 20.8654 83.4829 21.2069C83.9231 21.5485 84.5245 21.7223 85.2933 21.7223C85.9505 21.7223 86.5333 21.6044 87.0541 21.3622C87.5687 21.12 87.9779 20.7846 88.2817 20.35C88.5793 19.9215 88.7343 19.4185 88.7343 18.8471V15.6056C88.7343 15.0529 88.6165 14.5747 88.3809 14.1711C88.1453 13.7674 87.7919 13.4569 87.3269 13.2334C86.8619 13.0098 86.2853 12.898 85.6095 12.898C84.9957 12.898 84.3881 12.9912 83.7867 13.1775C83.1915 13.3638 82.6149 13.6556 82.0631 14.0593L81.3997 12.3702C82.1189 11.8796 82.8629 11.5318 83.6317 11.3393C84.4005 11.1406 85.1321 11.0413 85.8389 11.0413C86.9053 11.0413 87.8167 11.2089 88.5669 11.5443C89.3171 11.8796 89.8937 12.3826 90.2843 13.0595C90.6811 13.7302 90.8795 14.5747 90.8795 15.5745V23.1506H88.8645V21.7286C88.4615 22.3061 87.9035 22.747 87.1905 23.0513C86.4775 23.3556 85.6901 23.5108 84.8159 23.5108L84.8097 23.5294Z" fill="#0B1956"></path><path d="M94.4755 23.1693V11.5318H96.6579V13.1837C96.9803 12.7117 97.3523 12.3267 97.7677 12.0286C98.1831 11.7368 98.6233 11.5194 99.0821 11.3828C99.5471 11.2462 100.012 11.1779 100.49 11.1779C101.469 11.1779 102.275 11.389 102.914 11.8175C103.552 12.246 104.005 12.7862 104.272 13.4321C104.885 12.5441 105.58 11.9479 106.349 11.6374C107.117 11.3269 107.868 11.1717 108.612 11.1717C109.672 11.1717 110.521 11.3828 111.16 11.8051C111.798 12.2274 112.263 12.7676 112.555 13.4259C112.846 14.0841 112.989 14.7548 112.989 15.4441V23.163H110.806V16.0837C110.806 15.2267 110.571 14.5312 110.093 13.9972C109.616 13.4631 108.922 13.1961 108.004 13.1961C107.403 13.1961 106.863 13.3265 106.38 13.5935C105.896 13.8606 105.518 14.227 105.233 14.7051C104.954 15.1771 104.811 15.7235 104.811 16.3445V23.163H102.629V16.0837C102.629 15.2267 102.393 14.5312 101.922 13.9972C101.451 13.4631 100.756 13.1961 99.8261 13.1961C99.2309 13.1961 98.6977 13.3265 98.2141 13.5935C97.7305 13.8606 97.3523 14.227 97.0671 14.7051C96.7881 15.1771 96.6455 15.7235 96.6455 16.3445V23.163H94.4631L94.4755 23.1693Z" fill="#0B1956"></path><path d="M120.906 23.5046C119.784 23.5046 118.761 23.368 117.831 23.0885C116.901 22.8091 116.101 22.4179 115.431 21.9149L116.64 19.2446C117.298 19.6669 117.998 19.996 118.748 20.2382C119.499 20.4804 120.212 20.5984 120.881 20.5984C121.495 20.5984 121.966 20.5114 122.295 20.3437C122.617 20.1761 122.778 19.9277 122.778 19.5986C122.778 19.3129 122.63 19.1018 122.332 18.9713C122.034 18.8347 121.458 18.6919 120.596 18.5304C118.965 18.251 117.775 17.7977 117.019 17.1643C116.262 16.5308 115.884 15.6552 115.884 14.5375C115.884 13.7488 116.101 13.0533 116.535 12.4571C116.969 11.861 117.57 11.4014 118.345 11.0723C119.114 10.7432 120.001 10.5817 121.005 10.5817C122.01 10.5817 122.915 10.7121 123.783 10.973C124.657 11.2338 125.407 11.6002 126.027 12.0659L124.855 14.7486C124.533 14.494 124.155 14.2766 123.733 14.0841C123.312 13.8916 122.871 13.7488 122.425 13.6432C121.972 13.5377 121.538 13.488 121.111 13.488C120.584 13.488 120.15 13.5687 119.821 13.7302C119.492 13.8916 119.331 14.1152 119.331 14.4008C119.331 14.6865 119.474 14.9101 119.759 15.0529C120.044 15.1957 120.615 15.3572 121.464 15.5373C123.188 15.885 124.409 16.357 125.128 16.9469C125.847 17.5369 126.207 18.3628 126.207 19.4247C126.207 20.2506 125.984 20.9647 125.537 21.5733C125.091 22.1819 124.471 22.6538 123.677 22.9954C122.884 23.3307 121.954 23.4984 120.9 23.4984L120.906 23.5046Z" fill="#FF679A"></path><path d="M137.448 28.1559V20.4493L138.328 21.3498C137.776 22.0639 137.125 22.6042 136.381 22.9706C135.637 23.3369 134.806 23.5232 133.876 23.5232C132.692 23.5232 131.638 23.2376 130.721 22.6725C129.803 22.1074 129.084 21.3373 128.569 20.3686C128.048 19.3998 127.794 18.3131 127.794 17.1084C127.794 16.1396 127.943 15.264 128.247 14.4754C128.544 13.6867 128.966 13.0098 129.512 12.4509C130.051 11.8858 130.69 11.4573 131.421 11.153C132.153 10.8488 132.946 10.6935 133.808 10.6935C134.577 10.6935 135.271 10.8053 135.891 11.0226C136.511 11.24 137.045 11.5443 137.485 11.9417C137.925 12.3391 138.266 12.7925 138.502 13.3079L137.968 14.1897V11.0537H141.323V28.1559H137.448ZM134.527 20.1761C135.092 20.1761 135.588 20.0519 136.028 19.8035C136.468 19.5551 136.815 19.2011 137.063 18.7416C137.317 18.2821 137.441 17.7418 137.441 17.1146C137.441 16.4874 137.317 15.9471 137.063 15.4876C136.809 15.028 136.462 14.6741 136.022 14.4257C135.581 14.1773 135.079 14.0531 134.527 14.0531C133.976 14.0531 133.473 14.1773 133.033 14.4257C132.593 14.6741 132.24 15.028 131.985 15.4876C131.731 15.9471 131.601 16.4874 131.601 17.1146C131.601 17.7418 131.725 18.2821 131.979 18.7416C132.233 19.2011 132.581 19.5551 133.021 19.8035C133.461 20.0519 133.963 20.1761 134.527 20.1761Z" fill="#FF679A"></path><path d="M149.29 23.5295C148.192 23.5295 147.281 23.3121 146.562 22.8836C145.843 22.4551 145.309 21.8528 144.956 21.089C144.603 20.3251 144.429 19.4371 144.429 18.4249V11.0599H148.316V17.8412C148.316 18.5056 148.49 19.0335 148.843 19.4185C149.197 19.8035 149.705 20.0022 150.381 20.0022C150.815 20.0022 151.199 19.9029 151.528 19.7103C151.857 19.5178 152.111 19.2508 152.284 18.9093C152.464 18.5677 152.551 18.1703 152.551 17.7232V11.0599H156.438V23.1755H153.084V21.89C152.7 22.3247 152.204 22.7097 151.615 23.0389C151.026 23.368 150.245 23.5295 149.29 23.5295Z" fill="#FF679A"></path><path d="M163.066 23.5295C162.266 23.5295 161.547 23.3742 160.908 23.0575C160.27 22.747 159.761 22.2999 159.383 21.7162C159.005 21.1324 158.819 20.4369 158.819 19.6172C158.819 18.9217 158.993 18.3007 159.34 17.7666C159.687 17.2264 160.208 16.7855 160.902 16.4377C161.597 16.09 162.471 15.854 163.531 15.7298C164.585 15.6056 165.819 15.6118 167.239 15.7298L167.276 18.1517C166.526 18.015 165.85 17.9467 165.242 17.9467C164.635 17.9467 164.126 17.9964 163.698 18.102C163.277 18.2075 162.948 18.3752 162.719 18.5926C162.489 18.8161 162.378 19.0894 162.378 19.4123C162.378 19.8345 162.539 20.1513 162.855 20.3748C163.178 20.5984 163.605 20.7101 164.139 20.7101C164.604 20.7101 165.025 20.6294 165.403 20.4618C165.782 20.2941 166.079 20.0519 166.296 19.729C166.519 19.4061 166.631 19.0148 166.631 18.5491V15.7919C166.631 15.351 166.544 14.9597 166.364 14.6306C166.185 14.2953 165.899 14.0407 165.509 13.8544C165.118 13.6681 164.597 13.5749 163.953 13.5749C163.308 13.5749 162.7 13.6681 162.086 13.8606C161.473 14.0531 160.921 14.3263 160.431 14.6927L159.433 12.0224C160.214 11.5319 161.051 11.1717 161.944 10.9357C162.837 10.6997 163.717 10.588 164.579 10.588C165.72 10.588 166.718 10.768 167.586 11.1344C168.454 11.5008 169.13 12.0597 169.619 12.8235C170.109 13.5811 170.357 14.5561 170.357 15.7422V23.1755H166.991V21.89C166.606 22.4117 166.067 22.8153 165.391 23.101C164.709 23.3866 163.934 23.5295 163.066 23.5295Z" fill="#FF679A"></path><path d="M178.479 23.5294C177.326 23.5294 176.297 23.2624 175.392 22.7346C174.486 22.2067 173.773 21.4553 173.253 20.4928C172.732 19.524 172.471 18.4 172.471 17.1208C172.471 16.2079 172.62 15.3696 172.918 14.5933C173.215 13.8171 173.637 13.1402 174.183 12.5565C174.728 11.9727 175.373 11.5194 176.111 11.1965C176.849 10.8736 177.667 10.7121 178.56 10.7121C179.453 10.7121 180.321 10.8922 181.065 11.2586C181.809 11.625 182.453 12.1652 183.011 12.8856L182.125 13.7736V7.50159H186.012V23.1755H182.658V20.027L183.191 20.9088C182.844 21.6851 182.261 22.3185 181.449 22.8029C180.637 23.2872 179.651 23.5356 178.498 23.5356L178.479 23.5294ZM179.205 20.1761C179.756 20.1761 180.259 20.0519 180.699 19.8035C181.139 19.5551 181.486 19.2011 181.74 18.7416C181.995 18.282 182.119 17.7418 182.119 17.1146C182.119 16.4874 181.995 15.9471 181.74 15.4876C181.486 15.028 181.139 14.6741 180.705 14.4257C180.271 14.1773 179.769 14.0531 179.205 14.0531C178.64 14.0531 178.138 14.1773 177.698 14.4257C177.258 14.6741 176.904 15.028 176.656 15.4876C176.402 15.9471 176.278 16.4874 176.278 17.1146C176.278 17.7418 176.408 18.282 176.663 18.7416C176.917 19.2011 177.27 19.5551 177.71 19.8035C178.151 20.0519 178.653 20.1761 179.205 20.1761Z" fill="#FF679A"></path><path d="M32.8786 5.45239L25.792 0.720424C24.5148 -0.130338 22.878 -0.235906 21.5078 0.453397L17.8622 2.27912C17.701 2.35985 17.546 2.453 17.3972 2.54615C17.2484 2.44679 17.0934 2.35364 16.9322 2.27912L13.2866 0.453397C11.9164 -0.235906 10.2734 -0.130338 9.0024 0.720424L1.9034 5.45239C0.713 6.24727 0 7.5824 0 9.0169V21.9832C0 23.4177 0.713 24.7529 1.9034 25.5477L8.9962 30.2797C9.7092 30.7579 10.54 31.0001 11.3708 31.0001C12.0218 31.0001 12.679 30.851 13.2804 30.5467L16.926 28.721C17.0872 28.6403 17.2422 28.5471 17.391 28.454C17.5398 28.5534 17.6948 28.6403 17.856 28.721L21.5016 30.5467C22.8718 31.2298 24.5086 31.1305 25.7858 30.2797L32.8786 25.5477C34.069 24.7529 34.782 23.4177 34.782 21.9832V9.0169C34.782 7.5824 34.069 6.25348 32.8786 5.45239ZM15.2272 25.318L11.5816 27.1437C11.4266 27.2182 11.2468 27.212 11.1042 27.1127L4.0176 22.3807C3.8812 22.2937 3.8068 22.1447 3.8068 21.9832V9.0169C3.8068 8.85544 3.8874 8.7064 4.0176 8.61946L11.1042 3.88749C11.1848 3.8316 11.2778 3.80676 11.3708 3.80676C11.4452 3.80676 11.5196 3.82539 11.5878 3.85644L15.2334 5.68216C15.3946 5.76289 15.5 5.93056 15.5 6.11065C15.5 9.66273 13.02 12.6435 9.703 13.4073C8.7234 13.6309 8.0228 14.4941 8.0228 15.5001C8.0228 16.0031 8.1964 16.4688 8.494 16.8352C8.7916 17.2078 9.2132 17.4748 9.703 17.5866C13.02 18.3504 15.5 21.3312 15.5 24.8833C15.5 25.0696 15.4008 25.231 15.2334 25.3118L15.2272 25.318ZM17.391 18.6237C16.5664 17.3879 15.5062 16.326 14.2724 15.5001C15.5062 14.6741 16.5664 13.6123 17.391 12.3765C18.2156 13.6123 19.2758 14.6741 20.5096 15.5001C19.2758 16.326 18.2156 17.3879 17.391 18.6237ZM30.9814 21.9832C30.9814 22.1447 30.9008 22.2937 30.7706 22.3807L23.684 27.1127C23.5414 27.2058 23.3554 27.2182 23.2004 27.1437L19.5548 25.318C19.3936 25.2373 19.2882 25.0696 19.2882 24.8895C19.2882 21.3374 21.7744 18.3566 25.0852 17.5928C26.0648 17.3693 26.7654 16.5061 26.7654 15.5001C26.7654 14.4941 26.0648 13.6371 25.0852 13.4073C21.7744 12.6435 19.2944 9.66273 19.2882 6.11686C19.2882 5.92435 19.3874 5.76289 19.5548 5.67595L23.2066 3.85023C23.3616 3.77571 23.5414 3.78192 23.684 3.88128L30.7706 8.61325C30.907 8.7064 30.9814 8.84923 30.9814 9.01069V21.977V21.9832Z" fill="#FF679A"></path></g><defs><clipPath id="clip0_39_3"><rect width="186" height="31" fill="white"></rect></clipPath></defs></svg>